<svg width="1024" height="1024" viewBox="0 0 1024 1024" fill="none" xmlns="http://www.w3.org/2000/svg">
<path fill-rule="evenodd" clip-rule="evenodd" d="M512 256C512 397.385 397.385 512 256 512C114.615 512 0 397.385 0 256C0 238.736 1.70898 221.871 4.96704 205.564C6.5426 205.555 8.14264 205.271 9.7049 204.684C13.4605 203.428 19.1684 201.627 25.8524 199.809C20.0121 232.195 15.5451 292.951 57.4526 319.225C114.101 354.535 213.485 328.262 235.059 294.191C241.875 283.633 244.523 269.588 245.085 254.85C245.085 241.135 265.65 238.723 266.246 254.154C266.808 269.174 269.72 283.352 276.404 294.191C297.978 328.246 397.362 354.518 454.01 319.225C495.901 292.951 491.451 232.195 485.611 199.809C492.295 201.627 498.003 203.428 501.758 204.684C503.498 205.338 505.285 205.613 507.031 205.557C510.29 221.865 512 238.732 512 256ZM498.554 173.908C464.342 72.7891 368.671 0 256 0C143.397 0 47.7733 72.7012 13.5079 173.725C52.629 162.135 128.789 147.949 221.972 172.562C227.812 174.512 231.436 177.438 233.934 181.881C242.372 197.166 267.42 199.908 277.777 181.881C280.143 177.438 283.766 174.512 289.474 172.562C383.149 147.82 459.62 162.287 498.554 173.908ZM68.5872 301.428C116.6 331.469 201.788 307.41 217.373 283.088C228.938 264.598 223.23 223.867 218.349 200.934C147.919 181.75 87.3818 186.607 48.4027 194.391C43.125 218.299 33.645 279.336 68.5872 301.428ZM294.074 283.088C309.659 307.41 394.847 331.451 442.859 301.428C477.802 279.32 468.321 218.299 463.044 194.391C424.065 186.623 363.528 181.75 293.098 200.934C288.233 223.867 282.525 264.598 294.074 283.088Z" transform="scale(2)" fill="#F36C0E"/>
<path fill-rule="evenodd" clip-rule="evenodd" d="M512 256C512 397.385 397.385 512 256 512C114.615 512 0 397.385 0 256C0 238.736 1.70898 221.871 4.96704 205.564C6.5426 205.555 8.14264 205.271 9.7049 204.684C13.4605 203.428 19.1684 201.627 25.8524 199.809C20.0121 232.195 15.5451 292.951 57.4526 319.225C114.101 354.535 213.485 328.262 235.059 294.191C241.875 283.633 244.523 269.588 245.085 254.85C245.085 241.135 265.65 238.723 266.246 254.154C266.808 269.174 269.72 283.352 276.404 294.191C297.978 328.246 397.362 354.518 454.01 319.225C495.901 292.951 491.451 232.195 485.611 199.809C492.295 201.627 498.003 203.428 501.758 204.684C503.498 205.338 505.285 205.613 507.031 205.557C510.29 221.865 512 238.732 512 256ZM498.554 173.908C464.342 72.7891 368.671 0 256 0C143.397 0 47.7733 72.7012 13.5079 173.725C52.629 162.135 128.789 147.949 221.972 172.562C227.812 174.512 231.436 177.438 233.934 181.881C242.372 197.166 267.42 199.908 277.777 181.881C280.143 177.438 283.766 174.512 289.474 172.562C383.149 147.82 459.62 162.287 498.554 173.908ZM68.5872 301.428C116.6 331.469 201.788 307.41 217.373 283.088C228.938 264.598 223.23 223.867 218.349 200.934C147.919 181.75 87.3818 186.607 48.4027 194.391C43.125 218.299 33.645 279.336 68.5872 301.428ZM294.074 283.088C309.659 307.41 394.847 331.451 442.859 301.428C477.802 279.32 468.321 218.299 463.044 194.391C424.065 186.623 363.528 181.75 293.098 200.934C288.233 223.867 282.525 264.598 294.074 283.088Z" transform="scale(2)" fill="url(#paint0_linear)"/>
<defs>
<linearGradient id="paint0_linear" x2="1" gradientUnits="userSpaceOnUse" gradientTransform="translate(512) scale(512) rotate(90)">
<stop offset="0.0441989" stop-color="#F3C521"/>
<stop offset="1" stop-color="white" stop-opacity="0"/>
</linearGradient>
</defs>
</svg>
